<svg width="40" height="40" viewBox="0 0 40 40" xmlns="http://www.w3.org/2000/svg">
<path d="M35.5172 2.12646L37.8735 4.48279L26.3793 16.5517C24.5402 18.4828 24.5402 21.5173 26.3793 23.4483L37.8735 35.5173L35.5172 37.8736L23.4482 26.3793C21.5172 24.5403 18.4827 24.5403 16.5517 26.3793L4.48272 37.8736L2.11198 35.5326L13.3759 23.4023C15.1572 21.4839 15.1572 18.5162 13.3759 16.5978L2.11198 4.46745L4.48273 2.12646L16.5517 13.6207C18.4827 15.4598 21.5172 15.4598 23.4482 13.6207L35.5172 2.12646ZM21.8806 18.1194C20.5418 18.4283 19.1417 18.4027 17.813 18.0426C18.1226 19.3279 18.1226 20.6721 17.813 21.9575C19.1417 21.5973 20.5418 21.5717 21.8806 21.8807C21.5953 20.6443 21.5953 19.3557 21.8806 18.1194Z" fill="black"/>
</svg>
