<svg width="40" height="40" viewBox="0 0 40 40" xmlns="http://www.w3.org/2000/svg">
<path d="M18.4851 29.7883C18.4851 22.5195 24.1098 16.627 31.0482 16.627L32.6265 16.627L32.6265 19.8016L31.0482 19.8016C25.7834 19.8016 21.5154 24.2728 21.5154 29.7883L18.4851 29.7883Z" fill="black"/>
<path d="M21.5154 29.7883C21.5154 22.5195 15.8907 16.627 8.95224 16.627L7.37397 16.627L7.37397 19.8015L8.95224 19.8015C14.2171 19.8015 18.4851 24.2728 18.4851 29.7883L21.5154 29.7883Z" fill="black"/>
<path d="M18.4851 29.7883L18.4851 3.33331L21.5154 3.33331L21.5154 29.7883L18.4851 29.7883Z" fill="black"/>
<path d="M3.33337 24.4974H6.36368V33.4921H33.6364V24.4974H36.6667V36.6667H3.33337V24.4974Z" fill="black"/>
</svg>
