<svg width="40" height="40" viewBox="0 0 40 40" xmlns="http://www.w3.org/2000/svg">
<path d="M28.5427 6.66665C25.9272 6.66665 23.5469 8.17719 22.4332 10.5438C21.9284 11.6164 21.6667 12.7872 21.6667 13.9726V16.2H18.3334V13.9726C18.3334 12.2965 18.7034 10.6411 19.4171 9.12447C21.0806 5.58956 24.636 3.33331 28.5427 3.33331H29.2671C34.5688 3.33331 38.8667 7.63119 38.8667 12.9329C38.8667 16.6718 36.6958 20.0706 33.3034 21.6427L28.0076 24.0968C24.5347 25.7062 22.2001 29.0639 21.9009 32.8799L21.6616 35.9303L18.3385 35.6697L18.5777 32.6193C18.9712 27.6025 22.0404 23.1883 26.6061 21.0724L31.9018 18.6183C34.1163 17.5921 35.5334 15.3735 35.5334 12.9329C35.5334 9.47214 32.7279 6.66665 29.2671 6.66665H28.5427Z" fill="black"/>
<path d="M11.4573 6.66665C14.0728 6.66665 16.4531 8.17719 17.5668 10.5438C18.0716 11.6164 18.3333 12.7872 18.3333 13.9726V16.2H21.6666V13.9726C21.6666 12.2965 21.2966 10.6411 20.5829 9.12447C18.9194 5.58956 15.364 3.33331 11.4573 3.33331H10.7329C5.43118 3.33331 1.13329 7.63119 1.13329 12.9329C1.13329 16.6718 3.30423 20.0706 6.69662 21.6427L11.9924 24.0968C15.4653 25.7062 17.7999 29.0639 18.0991 32.8799L18.3384 35.9303L21.6615 35.6697L21.4223 32.6193C21.0288 27.6025 17.9596 23.1883 13.3939 21.0724L8.09816 18.6183C5.88373 17.5921 4.46663 15.3735 4.46663 12.9329C4.46663 9.47214 7.27212 6.66665 10.7329 6.66665H11.4573Z" fill="black"/>
</svg>
