<svg width="33" height="32" viewBox="0 0 33 32" xmlns="http://www.w3.org/2000/svg">
<path d="M10.9089 3.09442C9.47249 3.16219 8.49157 3.39142 7.63405 3.72838C6.74656 4.07425 5.99433 4.53838 5.24589 5.28952C4.49745 6.04067 4.03656 6.79343 3.69311 7.68227C3.36074 8.54169 3.13556 9.52341 3.07211 10.9606C3.00866 12.3978 2.99462 12.8598 3.00164 16.5259C3.00866 20.192 3.02486 20.6515 3.09452 22.0917C3.1631 23.5278 3.39152 24.5085 3.72848 25.3663C4.0749 26.2537 4.53849 27.0057 5.2899 27.7544C6.04131 28.5031 6.79353 28.9629 7.68454 29.3069C8.54314 29.6387 9.52514 29.865 10.9621 29.9279C12.399 29.9908 12.8615 30.0054 16.5265 29.9984C20.1915 29.9914 20.653 29.9752 22.0929 29.9069C23.5328 29.8385 24.5083 29.6085 25.3664 29.2732C26.2539 28.9259 27.0063 28.4632 27.7545 27.7115C28.5027 26.9598 28.9633 26.2065 29.3065 25.3171C29.6391 24.4585 29.8651 23.4765 29.9275 22.0407C29.9904 20.5997 30.0052 20.1396 29.9982 16.474C29.9912 12.8085 29.9747 12.349 29.9064 10.9093C29.8381 9.46968 29.6094 8.492 29.2727 7.63367C28.9258 6.74618 28.4627 5.99477 27.7116 5.24551C26.9604 4.49626 26.2066 4.03591 25.3175 3.69355C24.4583 3.36118 23.4769 3.13465 22.0399 3.07255C20.603 3.01045 20.1405 2.99452 16.4741 3.00154C12.8078 3.00856 12.3488 3.02422 10.9089 3.09442ZM11.0666 27.4993C9.75032 27.442 9.03562 27.2233 8.55934 27.0403C7.92862 26.7973 7.47934 26.5035 7.00468 26.0334C6.53001 25.5634 6.23841 25.1125 5.99217 24.4831C5.80722 24.0068 5.58447 23.2929 5.52291 21.9767C5.45595 20.554 5.44191 20.1269 5.43408 16.5226C5.42625 12.9184 5.44002 12.4918 5.50239 11.0686C5.55855 9.75345 5.7786 9.03795 5.96139 8.56194C6.20439 7.9304 6.49707 7.48193 6.96823 7.00754C7.43938 6.53315 7.88893 6.24101 8.51884 5.99477C8.99458 5.80901 9.70847 5.58814 11.0242 5.5255C12.4479 5.458 12.8745 5.4445 16.4782 5.43667C20.0819 5.42884 20.5096 5.44234 21.9338 5.50498C23.249 5.56222 23.9648 5.78012 24.4403 5.96399C25.0712 6.20699 25.5203 6.49886 25.9947 6.97082C26.469 7.44278 26.7615 7.89071 27.0077 8.52198C27.1937 8.99637 27.4146 9.70998 27.4767 11.0265C27.5445 12.4502 27.5598 12.8771 27.5663 16.4805C27.5728 20.084 27.5601 20.5119 27.4977 21.9345C27.4402 23.2508 27.2221 23.9658 27.0387 24.4426C26.7957 25.073 26.5028 25.5226 26.0314 25.9967C25.5599 26.4708 25.1109 26.763 24.4808 27.0092C24.0056 27.1947 23.2909 27.4161 21.9762 27.4787C20.5525 27.5457 20.1259 27.5597 16.5209 27.5676C12.9158 27.5754 12.4906 27.5608 11.0668 27.4993M22.0721 9.28473C22.0726 9.60516 22.1682 9.91823 22.3466 10.1844C22.5251 10.4505 22.7785 10.6577 23.0748 10.7798C23.371 10.9019 23.6968 10.9334 24.011 10.8703C24.3251 10.8073 24.6135 10.6524 24.8397 10.4254C25.0659 10.1984 25.2196 9.90948 25.2815 9.59509C25.3435 9.2807 25.3108 8.95501 25.1876 8.65921C25.0644 8.36341 24.8562 8.11078 24.5895 7.93328C24.3227 7.75578 24.0093 7.66138 23.6888 7.66202C23.2593 7.66288 22.8477 7.83431 22.5445 8.13861C22.2413 8.44291 22.0714 8.85517 22.0721 9.28473ZM9.56833 16.5135C9.57589 20.3421 12.6852 23.4387 16.513 23.4314C20.3408 23.4241 23.4396 20.3151 23.4323 16.4865C23.4251 12.6578 20.3149 9.5604 16.4866 9.56796C12.6582 9.57552 9.56104 12.6854 9.56833 16.5135ZM12 16.5086C11.9982 15.6186 12.2604 14.748 12.7534 14.007C13.2464 13.266 13.9481 12.6878 14.7697 12.3456C15.5913 12.0033 16.496 11.9124 17.3692 12.0843C18.2425 12.2562 19.0452 12.6832 19.6758 13.3114C20.3064 13.9395 20.7366 14.7404 20.912 15.613C21.0873 16.4856 21 17.3906 20.661 18.2136C20.322 19.0365 19.7467 19.7405 19.0076 20.2364C18.2685 20.7324 17.399 20.998 16.509 20.9998C15.918 21.001 15.3326 20.8859 14.7861 20.6608C14.2396 20.4358 13.7429 20.1053 13.3242 19.6882C12.9054 19.2712 12.573 18.7757 12.3458 18.2301C12.1186 17.6846 12.0011 17.0996 12 16.5086Z" fill="black"/>
</svg>
