<svg width="33" height="32" viewBox="0 0 33 32" xmlns="http://www.w3.org/2000/svg">
<path fill-rule="evenodd" clip-rule="evenodd" d="M9.05612 11.9369H3.44159V29.9999H9.05612V11.9369ZM8.07018 3.5493C7.53418 3.19116 6.90401 3 6.25937 3C5.39493 3 4.5659 3.34339 3.95465 3.95464C3.34339 4.56588 3 5.39491 3 6.25934C3 6.90398 3.19115 7.53414 3.5493 8.07013C3.90744 8.60613 4.41649 9.02388 5.01206 9.27058C5.60764 9.51727 6.26298 9.58181 6.89524 9.45605C7.52749 9.33029 8.10826 9.01987 8.56409 8.56404C9.01992 8.10821 9.33035 7.52745 9.45611 6.8952C9.58188 6.26295 9.51732 5.60761 9.27063 5.01204C9.02394 4.41648 8.60618 3.90744 8.07018 3.5493ZM17.9721 11.9369H12.5888V29.9894H18.1823V21.0525C18.1823 18.6974 18.6239 16.4158 21.5468 16.4158C24.4698 16.4158 24.4698 19.1074 24.4698 21.2102V29.9999H30.0843V20.0957C30.0843 15.2383 29.0434 11.4953 23.3553 11.4953C22.2896 11.4554 21.2331 11.7052 20.2982 12.2181C19.3632 12.7309 18.5847 13.4876 18.0456 14.4077H17.9721V11.9369Z" fill="black"/>
</svg>
