<svg width="40" height="32" viewBox="0 0 40 32" xmlns="http://www.w3.org/2000/svg">
<path d="M32.9202 9.72158C32.9405 10.0145 32.9405 10.3074 32.9405 10.6031C32.9405 19.6111 26.0614 30 13.4826 30V29.9946C9.76675 30 6.12812 28.939 3 26.9384C3.54031 27.0032 4.08333 27.0356 4.6277 27.0369C7.70707 27.0396 10.6984 26.0097 13.121 24.113C10.1947 24.0577 7.62853 22.1556 6.73207 19.3789C7.75717 19.576 8.81342 19.5355 9.81957 19.2614C6.62916 18.6189 4.33385 15.8245 4.33385 12.5793C4.33385 12.5497 4.33385 12.5213 4.33385 12.493C5.28447 13.0208 6.34885 13.3137 7.43759 13.3461C4.4327 11.3442 3.50646 7.35923 5.32104 4.24363C8.79311 8.50261 13.9159 11.0917 19.4152 11.3658C18.864 8.99803 19.6169 6.51688 21.3936 4.85244C24.148 2.2714 28.4799 2.40369 31.0691 5.14807C32.6007 4.84704 34.0686 4.28682 35.4119 3.49307C34.9014 5.07112 33.8329 6.41159 32.4057 7.26339C33.7612 7.1041 35.0855 6.74232 36.3327 6.1902C35.4146 7.56172 34.2581 8.75639 32.9202 9.72158Z" fill="black"/>
</svg>
