<svg width="33" height="32" viewBox="0 0 33 32" xmlns="http://www.w3.org/2000/svg">
<path fill-rule="evenodd" clip-rule="evenodd" d="M16.4379 4.8121C15.3703 4.8121 14.115 5.70542 13.0626 7.8101C12.7351 8.46515 12.4445 9.20815 12.2009 10.0228H20.6748C20.4312 9.20815 20.1406 8.46515 19.8131 7.8101C18.7607 5.70542 17.5054 4.8121 16.4379 4.8121ZM21.1749 12.1684H11.7008C11.4944 13.3599 11.3804 14.6487 11.3804 15.9998C11.3804 17.3509 11.4944 18.6398 11.7008 19.8313H21.1749C21.3813 18.6398 21.4953 17.3509 21.4953 15.9998C21.4953 14.6487 21.3813 13.3599 21.1749 12.1684ZM23.3493 19.8313C23.5397 18.614 23.6409 17.3269 23.6409 15.9998C23.6409 14.6728 23.5397 13.3856 23.3493 12.1684H26.9523C27.3879 13.3636 27.6256 14.654 27.6256 15.9998C27.6256 17.3457 27.3879 18.6361 26.9523 19.8313H23.3493ZM20.6748 21.9769H12.2009C12.4445 22.7915 12.7351 23.5345 13.0626 24.1896C14.115 26.2943 15.3703 27.1876 16.4379 27.1876C17.5054 27.1876 18.7607 26.2943 19.8131 24.1896C20.1406 23.5345 20.4312 22.7915 20.6748 21.9769ZM21.1808 26.1354C21.378 25.8197 21.5619 25.4895 21.7322 25.1491C22.202 24.2094 22.5968 23.1408 22.9032 21.9769H25.8969C24.7585 23.7746 23.1217 25.2256 21.1808 26.1354ZM16.4379 29.3332C23.8017 29.3332 29.7712 23.3636 29.7712 15.9998C29.7712 8.63604 23.8017 2.6665 16.4379 2.6665C9.07406 2.6665 3.10452 8.63604 3.10452 15.9998C3.10452 23.3636 9.07406 29.3332 16.4379 29.3332ZM21.1808 5.86429C23.1217 6.77412 24.7585 8.22504 25.8969 10.0228H22.9032C22.5968 8.85888 22.202 7.79023 21.7322 6.85056C21.5619 6.51013 21.378 6.17995 21.1808 5.86429ZM11.6949 26.1354C11.4977 25.8197 11.3138 25.4895 11.1436 25.1491C10.6737 24.2094 10.2789 23.1408 9.97252 21.9769H6.97884C8.11721 23.7746 9.75398 25.2256 11.6949 26.1354ZM9.52638 19.8313C9.33597 18.614 9.23479 17.3269 9.23479 15.9998C9.23479 14.6728 9.33597 13.3856 9.52638 12.1684H5.9234C5.48777 13.3636 5.25012 14.654 5.25012 15.9998C5.25012 17.3457 5.48777 18.6361 5.9234 19.8313H9.52638ZM9.97252 10.0228C10.2789 8.85888 10.6737 7.79023 11.1436 6.85056C11.3138 6.51013 11.4977 6.17995 11.6949 5.86429C9.75398 6.77412 8.11721 8.22504 6.97884 10.0228H9.97252Z" fill="black"/>
</svg>
